<svg width="34" height="24" viewBox="0 0 34 24" fill="none" xmlns="http://www.w3.org/2000/svg">
<g clip-path="url(#clip0_10_208)">
<path d="M19.4924 0.346683C17.8691 0.350244 16.2759 0.822947 14.8765 1.71625C13.4771 2.60955 12.3218 3.89126 11.5293 5.42976C10.8472 5.06903 10.0986 4.88101 9.33989 4.87985C8.15074 4.88325 7.00137 5.34525 6.09675 6.18347C5.19214 7.02168 4.59111 8.1816 4.40086 9.45635C3.14475 10.0275 2.0721 10.9891 1.31768 12.2203C0.563256 13.4515 0.160719 14.8973 0.160645 16.3762C0.162417 18.3653 0.891508 20.2722 2.18762 21.6777C3.48374 23.0832 5.24077 23.8722 7.07242 23.8713C7.36228 23.8684 7.65169 23.8458 7.93893 23.8035H27.1438C27.2447 23.8114 27.3457 23.8167 27.4468 23.8194C27.5431 23.8164 27.6394 23.8111 27.7355 23.8035H28.1954V23.7663C29.7591 23.5655 31.2009 22.7457 32.2475 21.4622C33.2941 20.1788 33.8729 18.521 33.874 16.803V16.7895C33.8703 15.1579 33.3457 13.5787 32.3903 12.3236C31.4348 11.0685 30.1084 10.2159 28.6392 9.91255C28.5519 7.34217 27.5498 4.90878 25.8438 3.12459C24.1378 1.3404 21.8609 0.344558 19.4924 0.346683Z" fill="url(#paint0_linear_10_208)"/>
</g>
<defs>
<linearGradient id="paint0_linear_10_208" x1="33.9763" y1="16.822" x2="0.147214" y2="16.3923" gradientUnits="userSpaceOnUse">
<stop stop-color="#3E82F4"/>
<stop offset="1" stop-color="#93DCF7"/>
</linearGradient>
<clipPath id="clip0_10_208">
<rect width="34" height="24" fill="white"/>
</clipPath>
</defs>
</svg>
