<svg width="24" height="24" viewBox="0 0 24 24" fill="none" xmlns="http://www.w3.org/2000/svg">
<g clip-path="url(#clip0_2_135)">
<path d="M7.99999 10.76H7.41999C6.6285 10.7314 5.83957 10.8658 5.10216 11.1548C4.36476 11.4438 3.69462 11.8812 3.13333 12.44L2.97333 12.6267V18.1467H5.69333V15.0133L6.05999 14.6L6.22666 14.4067C7.09461 13.515 8.17518 12.8589 9.36666 12.5C8.77013 12.0461 8.29965 11.4471 7.99999 10.76Z" fill="#FB7200"/>
<path d="M20.8933 12.42C20.332 11.8612 19.6619 11.4238 18.9245 11.1348C18.1871 10.8458 17.3982 10.7114 16.6067 10.74C16.3639 10.7407 16.1214 10.754 15.88 10.78C15.5747 11.4246 15.1171 11.9852 14.5467 12.4133C15.8186 12.7652 16.9709 13.4566 17.88 14.4133L18.0467 14.6L18.4067 15.0133V18.1533H21.0333V12.6067L20.8933 12.42Z" fill="#FB7200"/>
<path d="M7.40001 9.46H7.60667C7.51065 8.63549 7.65532 7.80082 8.02323 7.05673C8.39113 6.31263 8.96655 5.69093 9.68001 5.26667C9.42138 4.87157 9.06458 4.5504 8.64454 4.33463C8.22451 4.11886 7.75563 4.01587 7.28383 4.03575C6.81203 4.05563 6.35348 4.1977 5.95309 4.44805C5.55269 4.6984 5.22418 5.04844 4.99971 5.4639C4.77524 5.87936 4.66252 6.34599 4.67259 6.8181C4.68265 7.29021 4.81515 7.75162 5.05711 8.15713C5.29907 8.56265 5.64221 8.89838 6.0529 9.13144C6.4636 9.3645 6.92779 9.4869 7.40001 9.48667V9.46Z" fill="#FB7200"/>
<path d="M16.2867 8.96C16.2948 9.11323 16.2948 9.26677 16.2867 9.42C16.4146 9.44028 16.5438 9.45142 16.6733 9.45333H16.8C17.2701 9.42826 17.7258 9.28189 18.1226 9.02845C18.5193 8.77502 18.8437 8.42316 19.0642 8.00714C19.2846 7.59112 19.3936 7.12512 19.3804 6.65449C19.3673 6.18386 19.2325 5.72465 18.9892 5.32157C18.746 4.91849 18.4025 4.58527 17.9922 4.35435C17.5819 4.12344 17.1188 4.00269 16.648 4.00388C16.1772 4.00506 15.7147 4.12813 15.3055 4.36111C14.8964 4.59409 14.5546 4.92903 14.3133 5.33333C14.9167 5.72729 15.4129 6.26487 15.7573 6.89785C16.1017 7.53082 16.2836 8.2394 16.2867 8.96Z" fill="#FB7200"/>
<path d="M11.9133 11.9467C13.5591 11.9467 14.8933 10.6125 14.8933 8.96666C14.8933 7.32086 13.5591 5.98666 11.9133 5.98666C10.2675 5.98666 8.93333 7.32086 8.93333 8.96666C8.93333 10.6125 10.2675 11.9467 11.9133 11.9467Z" fill="#FB7200"/>
<path d="M12.0733 13.5333C11.2027 13.4982 10.334 13.6395 9.51936 13.9489C8.70477 14.2582 7.96119 14.7291 7.33334 15.3333L7.16667 15.52V19.74C7.16927 19.8775 7.19893 20.0131 7.25395 20.1391C7.30897 20.265 7.38827 20.379 7.48732 20.4743C7.58637 20.5696 7.70324 20.6445 7.83125 20.6947C7.95925 20.7449 8.09588 20.7693 8.23334 20.7667H15.8933C16.0308 20.7693 16.1674 20.7449 16.2954 20.6947C16.4234 20.6445 16.5403 20.5696 16.6394 20.4743C16.7384 20.379 16.8177 20.265 16.8727 20.1391C16.9277 20.0131 16.9574 19.8775 16.96 19.74V15.5333L16.8 15.3333C16.1762 14.7273 15.4352 14.255 14.6224 13.9455C13.8097 13.636 12.9422 13.4957 12.0733 13.5333Z" fill="#FB7200"/>
</g>
<defs>
<clipPath id="clip0_2_135">
<rect width="24" height="24" fill="white"/>
</clipPath>
</defs>
</svg>
