<svg width="25" height="25" viewBox="0 0 25 25" fill="none" xmlns="http://www.w3.org/2000/svg">
<rect width="24" height="24" transform="translate(0.909088 0.242432)" fill="#E6E5E5"/>
<path d="M12.9091 15.2424L16.9091 11.2424H8.90909L12.9091 15.2424ZM12.9091 22.2424C11.5258 22.2424 10.2258 21.9798 9.00909 21.4544C7.79242 20.9298 6.73409 20.2174 5.83409 19.3174C4.93409 18.4174 4.22175 17.3591 3.69709 16.1424C3.17175 14.9258 2.90909 13.6258 2.90909 12.2424C2.90909 10.8591 3.17175 9.5591 3.69709 8.34243C4.22175 7.12577 4.93409 6.06743 5.83409 5.16743C6.73409 4.26743 7.79242 3.55476 9.00909 3.02943C10.2258 2.50476 11.5258 2.24243 12.9091 2.24243C14.2924 2.24243 15.5924 2.50476 16.8091 3.02943C18.0258 3.55476 19.0841 4.26743 19.9841 5.16743C20.8841 6.06743 21.5964 7.12577 22.1211 8.34243C22.6464 9.5591 22.9091 10.8591 22.9091 12.2424C22.9091 13.6258 22.6464 14.9258 22.1211 16.1424C21.5964 17.3591 20.8841 18.4174 19.9841 19.3174C19.0841 20.2174 18.0258 20.9298 16.8091 21.4544C15.5924 21.9798 14.2924 22.2424 12.9091 22.2424Z" fill="#FB7200"/>
</svg>
