<svg width="25" height="32" viewBox="0 0 25 32" fill="none" xmlns="http://www.w3.org/2000/svg">
<g filter="url(#filter0_d_24_1072)">
<path d="M6 22C5.45 22 4.979 21.8043 4.587 21.413C4.19567 21.021 4 20.55 4 20V6H6V20H17V22H6ZM10 18C9.45 18 8.97933 17.8043 8.588 17.413C8.196 17.021 8 16.55 8 16V4C8 3.45 8.196 2.979 8.588 2.587C8.97933 2.19567 9.45 2 10 2H19C19.55 2 20.021 2.19567 20.413 2.587C20.8043 2.979 21 3.45 21 4V16C21 16.55 20.8043 17.021 20.413 17.413C20.021 17.8043 19.55 18 19 18H10Z" fill="#E6E5E5"/>
</g>
<defs>
<filter id="filter0_d_24_1072" x="-3" y="0" width="32" height="34" filterUnits="userSpaceOnUse" color-interpolation-filters="sRGB">
<feFlood flood-opacity="0" result="BackgroundImageFix"/>
<feColorMatrix in="SourceAlpha" type="matrix" values="0 0 0 0 0 0 0 0 0 0 0 0 0 0 0 0 0 0 127 0" result="hardAlpha"/>
<feOffset dy="6"/>
<feGaussianBlur stdDeviation="2"/>
<feComposite in2="hardAlpha" operator="out"/>
<feColorMatrix type="matrix" values="0 0 0 0 0 0 0 0 0 0 0 0 0 0 0 0 0 0 0.25 0"/>
<feBlend mode="normal" in2="BackgroundImageFix" result="effect1_dropShadow_24_1072"/>
<feBlend mode="normal" in="SourceGraphic" in2="effect1_dropShadow_24_1072" result="shape"/>
</filter>
</defs>
</svg>
