<svg width="24" height="24" viewBox="0 0 24 24" fill="none" xmlns="http://www.w3.org/2000/svg">
<g clip-path="url(#clip0_10_216)">
<path d="M23.5512 5.81128H9.38586V18.4793H23.5512V5.81128Z" fill="white"/>
<path d="M9.14371 5.28125C8.60511 5.28125 8.17114 5.73708 8.17114 6.30444L8.17525 18.0522C8.14857 18.6054 8.44404 19.0754 9.03702 19.0754H23.0316C23.5558 19.0754 24 18.7624 23.9928 18.259L24 6.30444C24 5.73708 23.5661 5.28125 23.0274 5.28125H9.14371ZM8.94879 6.12904H23.2142L23.2183 18.2178H8.95289L8.94879 6.12904Z" fill="#0071C5"/>
<path d="M23.2591 6.65234L16.4203 12.4374V13.2192C16.4723 13.2312 16.5263 13.2303 16.5779 13.2166C16.6296 13.2029 16.6775 13.1767 16.7178 13.1401L23.2591 7.60949V6.65234Z" fill="#0071C5"/>
<path d="M9.6782 6.65234L16.517 12.4374V13.2192C16.4649 13.2312 16.411 13.2303 16.3593 13.2166C16.3077 13.2029 16.2598 13.1767 16.2195 13.1401L9.6782 7.60949V6.65234Z" fill="#0071C5"/>
<path d="M13.7042 24V0L0 2.39935V21.5996L13.7042 24Z" fill="url(#paint0_linear_10_216)"/>
<path d="M6.50191 7.7207C5.30019 7.7207 3.34619 8.78404 3.34619 12.1296C3.34619 15.4044 5.27804 16.4493 6.47065 16.4229C8.67968 16.374 9.53573 14.0136 9.53573 12.0303C9.53573 9.88324 8.69344 7.7207 6.50191 7.7207ZM6.37703 9.3941C7.33908 9.3941 7.92408 10.425 7.92408 11.9992C7.92408 13.3915 7.4337 14.7142 6.39175 14.7142C5.08025 14.7142 4.76627 13.0371 4.78194 12.0241C4.78194 10.9945 5.20872 9.3941 6.37703 9.3941Z" fill="white"/>
</g>
<defs>
<linearGradient id="paint0_linear_10_216" x1="13.704" y1="12.0001" x2="0.000382262" y2="12.0001" gradientUnits="userSpaceOnUse">
<stop stop-color="#006BC2"/>
<stop offset="1" stop-color="#0077C9"/>
</linearGradient>
<clipPath id="clip0_10_216">
<rect width="24" height="24" fill="white"/>
</clipPath>
</defs>
</svg>
