<svg width="58" height="58" viewBox="0 0 58 58" fill="none" xmlns="http://www.w3.org/2000/svg">
<g clip-path="url(#clip0_24_1014)">
<path d="M29 28.9999V2.8999C34.5118 2.8999 39.8821 4.64482 44.3412 7.88456C48.8003 11.1243 52.1193 15.6925 53.8226 20.9346C55.5258 26.1766 55.5258 31.8232 53.8226 37.0652C52.1193 42.3073 48.8003 46.8755 44.3412 50.1152L29 28.9999Z" fill="#1E1D1C"/>
<path d="M29 28.9999L44.3412 50.1152C41.009 52.5362 37.1511 54.1342 33.083 54.7786C29.0148 55.4229 24.8519 55.0953 20.9347 53.8225C17.0174 52.5497 13.457 50.3679 10.5445 47.4554C7.63207 44.5429 5.45025 40.9825 4.17745 37.0652C2.90466 33.148 2.57703 28.9851 3.22136 24.917C3.86569 20.8488 5.46368 16.9909 7.88469 13.6587C10.3057 10.3265 13.481 7.61455 17.1509 5.74463C20.8208 3.87471 24.8812 2.8999 29 2.8999V28.9999Z" fill="#FB7100"/>
</g>
<defs>
<clipPath id="clip0_24_1014">
<rect width="58" height="58" fill="white"/>
</clipPath>
</defs>
</svg>
