<svg width="358" height="32" viewBox="0 0 358 32" fill="none" xmlns="http://www.w3.org/2000/svg">
<path d="M0 12C0 5.37258 5.37258 0 12 0H346C352.627 0 358 5.37258 358 12V20C358 26.6274 352.627 32 346 32H12C5.37259 32 0 26.6274 0 20V12Z" fill="#403E3A"/>
<path d="M0 12C0 5.37258 5.37258 0 12 0H52C58.6274 0 64 5.37258 64 12V20C64 26.6274 58.6274 32 52 32H12C5.37258 32 0 26.6274 0 20V12Z" fill="#E6E5E5"/>
<path d="M52 0H134V32H52V0Z" fill="#982323"/>
<path d="M80 0H134V32H80V0Z" fill="#234B98"/>
<path d="M125 0H159V32H125V0Z" fill="#23988A"/>
<path d="M159 0H176V32H159V0Z" fill="#A7BC25"/>
</svg>
